<svg xmlns="http://www.w3.org/2000/svg" xmlns:xlink="http://www.w3.org/1999/xlink" viewBox="0 0 1058.02 753.87"><defs><style>.cls-1,.cls-2,.cls-3,.cls-4,.cls-5,.cls-6,.cls-8,.cls-9{fill:none;stroke:#231f20;}.cls-1,.cls-4,.cls-5,.cls-6,.cls-8,.cls-9{stroke-miterlimit:10;}.cls-2{stroke-linejoin:round;}.cls-3{stroke-linejoin:bevel;}.cls-4,.cls-5,.cls-9{stroke-width:0.5px;}.cls-5,.cls-8{stroke-dasharray:2 2;}.cls-6,.cls-8{stroke-width:0.25px;}.cls-7{fill:#231f20;}.cls-9{stroke-linecap:square;stroke-dasharray:3 2 0 2;}</style><symbol id="FlipDot" data-name="FlipDot" viewBox="0 0 29.35 29.35"><rect class="cls-1" x="0.5" y="0.5" width="28.35" height="28.35"/><polygon class="cls-1" points="0.5 21.76 0.5 28.85 7.59 28.85 0.5 21.76"/><polygon class="cls-1" points="28.85 7.59 28.85 0.5 21.76 0.5 28.85 7.59"/><circle class="cls-1" cx="5.46" cy="5.46" r="2.13"/><path class="cls-1" d="M23.69,5.65A14.36,14.36,0,0,0,9.51,1.75,5.66,5.66,0,0,1,1.75,9.51a14.36,14.36,0,0,0,3.9,14.18c5.53,5.53,14.06,6,19,1S29.22,11.18,23.69,5.65Z"/><polygon class="cls-1" points="26.25 4.99 24.64 6.6 22.85 4.81 24.46 3.2 26.25 4.99"/><polygon class="cls-1" points="6.61 24.65 5 26.26 3.21 24.47 4.82 22.86 6.61 24.65"/></symbol><symbol id="Klinke" data-name="Klinke" viewBox="0 0 15.7 110.46"><rect class="cls-1" x="0.84" y="40.19" width="14.17" height="39.69"/><rect class="cls-1" x="2.97" y="14.67" width="9.92" height="25.51"/><polygon class="cls-2" points="11.47 14.67 4.38 14.67 2.96 4.33 12.89 4.33 11.47 14.67"/><polygon class="cls-3" points="6.38 0.5 9.47 0.5 12.89 4.33 2.96 4.33 6.38 0.5"/><rect class="cls-1" x="2.97" y="31.89" width="9.92" height="1.42"/><rect class="cls-1" x="2.97" y="23.93" width="9.92" height="1.42"/><polyline class="cls-1" points="3.67 107.23 3.67 79.87 12.18 79.87 12.18 110.18"/><path class="cls-4" d="M15.52,108.67a5.77,5.77,0,0,1-4.79,1.47c-2.1-.31-3.95-2.94-6.32-2.94a5.77,5.77,0,0,0-4.22,1.47"/></symbol></defs><g id="Inner"><polyline class="cls-5" points="447.27 63.86 466.82 63.86 495.17 61.02 589 61.02"/><polyline class="cls-5" points="447.27 267.95 466.82 267.95 495.17 270.79 589 270.79"/></g><g id="Layer_1" data-name="Layer 1"><rect class="cls-1" x="56.08" y="55.35" width="306.14" height="306.14"/><rect class="cls-1" x="742.23" y="55.35" width="306.14" height="306.14"/><rect class="cls-1" x="447.27" y="439.5" width="141.73" height="306.14"/><rect class="cls-1" x="517.22" y="445.17" width="71.78" height="294.8"/><rect class="cls-1" x="747.9" y="61.02" width="294.8" height="300.47"/><rect class="cls-1" x="886.79" y="358.66" width="17.01" height="2.83"/><rect class="cls-1" x="510.13" y="591.15" width="17.01" height="2.83" transform="translate(1111.21 73.94) rotate(90)"/><polygon class="cls-1" points="589 335.98 518.13 361.5 447.27 361.5 447.27 55.35 589 55.35 589 335.98"/><rect class="cls-1" x="64.59" y="63.86" width="289.13" height="204.09"/><use width="29.35" height="29.35" transform="translate(66.92 66.19)" xlink:href="#FlipDot"/><use width="29.35" height="29.35" transform="translate(95.27 66.19)" xlink:href="#FlipDot"/><use width="29.35" height="29.35" transform="translate(123.62 66.19)" xlink:href="#FlipDot"/><use width="29.35" height="29.35" transform="translate(151.96 66.19)" xlink:href="#FlipDot"/><use width="29.35" height="29.35" transform="translate(180.31 66.19)" xlink:href="#FlipDot"/><use width="29.35" height="29.35" transform="translate(208.66 66.19)" xlink:href="#FlipDot"/><use width="29.35" height="29.35" transform="translate(237 66.19)" xlink:href="#FlipDot"/><use width="29.35" height="29.35" transform="translate(265.35 66.19)" xlink:href="#FlipDot"/><use width="29.35" height="29.35" transform="translate(293.7 66.19)" xlink:href="#FlipDot"/><use width="29.35" height="29.35" transform="translate(322.04 66.19)" xlink:href="#FlipDot"/><use width="29.35" height="29.35" transform="translate(66.92 94.54)" xlink:href="#FlipDot"/><use width="29.35" height="29.35" transform="translate(95.27 94.54)" xlink:href="#FlipDot"/><use width="29.35" height="29.35" transform="translate(123.62 94.54)" xlink:href="#FlipDot"/><use width="29.35" height="29.35" transform="translate(151.96 94.54)" xlink:href="#FlipDot"/><use width="29.35" height="29.35" transform="translate(180.31 94.54)" xlink:href="#FlipDot"/><use width="29.35" height="29.35" transform="translate(208.66 94.54)" xlink:href="#FlipDot"/><use width="29.35" height="29.35" transform="translate(237 94.54)" xlink:href="#FlipDot"/><use width="29.35" height="29.35" transform="translate(265.35 94.54)" xlink:href="#FlipDot"/><use width="29.35" height="29.35" transform="translate(293.7 94.54)" xlink:href="#FlipDot"/><use width="29.35" height="29.35" transform="translate(322.04 94.54)" xlink:href="#FlipDot"/><use width="29.35" height="29.35" transform="translate(66.92 122.89)" xlink:href="#FlipDot"/><use width="29.35" height="29.35" transform="translate(95.27 122.89)" xlink:href="#FlipDot"/><use width="29.35" height="29.35" transform="translate(123.62 122.89)" xlink:href="#FlipDot"/><use width="29.35" height="29.35" transform="translate(151.96 122.89)" xlink:href="#FlipDot"/><use width="29.35" height="29.35" transform="translate(180.31 122.89)" xlink:href="#FlipDot"/><use width="29.35" height="29.35" transform="translate(208.66 122.89)" xlink:href="#FlipDot"/><use width="29.35" height="29.35" transform="translate(237 122.89)" xlink:href="#FlipDot"/><use width="29.35" height="29.35" transform="translate(265.35 122.89)" xlink:href="#FlipDot"/><use width="29.35" height="29.35" transform="translate(293.7 122.89)" xlink:href="#FlipDot"/><use width="29.35" height="29.35" transform="translate(322.04 122.89)" xlink:href="#FlipDot"/><use width="29.35" height="29.35" transform="translate(66.92 151.23)" xlink:href="#FlipDot"/><use width="29.35" height="29.35" transform="translate(95.27 151.23)" xlink:href="#FlipDot"/><use width="29.35" height="29.35" transform="translate(123.62 151.23)" xlink:href="#FlipDot"/><use width="29.35" height="29.35" transform="translate(151.96 151.23)" xlink:href="#FlipDot"/><use width="29.35" height="29.35" transform="translate(180.31 151.23)" xlink:href="#FlipDot"/><use width="29.35" height="29.35" transform="translate(208.66 151.23)" xlink:href="#FlipDot"/><use width="29.35" height="29.35" transform="translate(237 151.23)" xlink:href="#FlipDot"/><use width="29.35" height="29.35" transform="translate(265.35 151.23)" xlink:href="#FlipDot"/><use width="29.35" height="29.35" transform="translate(293.7 151.23)" xlink:href="#FlipDot"/><use width="29.35" height="29.35" transform="translate(322.04 151.23)" xlink:href="#FlipDot"/><use width="29.35" height="29.35" transform="translate(66.92 179.58)" xlink:href="#FlipDot"/><use width="29.35" height="29.35" transform="translate(95.27 179.58)" xlink:href="#FlipDot"/><use width="29.35" height="29.35" transform="translate(123.62 179.58)" xlink:href="#FlipDot"/><use width="29.35" height="29.35" transform="translate(151.96 179.58)" xlink:href="#FlipDot"/><use width="29.35" height="29.35" transform="translate(180.31 179.58)" xlink:href="#FlipDot"/><use width="29.35" height="29.35" transform="translate(208.66 179.58)" xlink:href="#FlipDot"/><use width="29.35" height="29.35" transform="translate(237 179.58)" xlink:href="#FlipDot"/><use width="29.35" height="29.35" transform="translate(265.35 179.58)" xlink:href="#FlipDot"/><use width="29.35" height="29.35" transform="translate(293.7 179.58)" xlink:href="#FlipDot"/><use width="29.35" height="29.35" transform="translate(322.04 179.58)" xlink:href="#FlipDot"/><use width="29.35" height="29.35" transform="translate(66.92 207.92)" xlink:href="#FlipDot"/><use width="29.35" height="29.35" transform="translate(95.27 207.92)" xlink:href="#FlipDot"/><use width="29.35" height="29.35" transform="translate(123.62 207.92)" xlink:href="#FlipDot"/><use width="29.35" height="29.35" transform="translate(151.96 207.92)" xlink:href="#FlipDot"/><use width="29.35" height="29.35" transform="translate(180.31 207.92)" xlink:href="#FlipDot"/><use width="29.35" height="29.35" transform="translate(208.66 207.92)" xlink:href="#FlipDot"/><use width="29.35" height="29.35" transform="translate(237 207.92)" xlink:href="#FlipDot"/><use width="29.35" height="29.35" transform="translate(265.35 207.92)" xlink:href="#FlipDot"/><use width="29.35" height="29.35" transform="translate(293.7 207.92)" xlink:href="#FlipDot"/><use width="29.35" height="29.35" transform="translate(322.04 207.92)" xlink:href="#FlipDot"/><use width="29.35" height="29.35" transform="translate(66.92 236.27)" xlink:href="#FlipDot"/><use width="29.35" height="29.35" transform="translate(95.27 236.27)" xlink:href="#FlipDot"/><use width="29.35" height="29.35" transform="translate(123.62 236.27)" xlink:href="#FlipDot"/><use width="29.35" height="29.35" transform="translate(151.96 236.27)" xlink:href="#FlipDot"/><use width="29.35" height="29.35" transform="translate(180.31 236.27)" xlink:href="#FlipDot"/><use width="29.35" height="29.35" transform="translate(208.66 236.27)" xlink:href="#FlipDot"/><use width="29.35" height="29.35" transform="translate(237 236.27)" xlink:href="#FlipDot"/><use width="29.35" height="29.35" transform="translate(265.35 236.27)" xlink:href="#FlipDot"/><use width="29.35" height="29.35" transform="translate(293.7 236.27)" xlink:href="#FlipDot"/><use width="29.35" height="29.35" transform="translate(322.04 236.27)" xlink:href="#FlipDot"/><circle class="cls-1" cx="308.37" cy="310.47" r="14.17"/><circle class="cls-1" cx="308.37" cy="310.47" r="15.59"/><line class="cls-1" x1="742.23" y1="335.98" x2="1048.37" y2="335.98"/><line class="cls-1" x1="517.22" y1="439.5" x2="517.22" y2="745.64"/><circle class="cls-1" cx="798.53" cy="290.06" r="7.09"/><circle class="cls-1" cx="798.53" cy="290.06" r="4.96"/><path class="cls-1" d="M487.43,488.62c5.78,7.59-2.79,16.16-10.38,10.39C471.27,491.42,479.85,482.85,487.43,488.62Z"/><path class="cls-1" d="M485.88,490.18c4,5.31-2,11.31-7.27,7.27C474.56,492.14,480.57,486.14,485.88,490.18Z"/><path class="cls-1" d="M817.35,110.29V105a7.09,7.09,0,0,0-14.18,0v5.33a11.34,11.34,0,1,0,14.18,0Z"/><path class="cls-1" d="M987.42,110.29V105a7.09,7.09,0,1,0-14.17,0v5.33a11.35,11.35,0,1,0,14.17,0Z"/><use width="15.7" height="110.46" transform="translate(300.52 410.8)" xlink:href="#Klinke"/><use width="15.7" height="110.46" transform="translate(605.99 297.9) rotate(-90)" xlink:href="#Klinke"/></g><g id="Labels"><line class="cls-6" x1="33.12" y1="63.98" x2="33.12" y2="267.83"/><rect class="cls-7" x="32.31" y="63.86" width="1.63" height="0.25"/><rect class="cls-7" x="32.31" y="267.7" width="1.63" height="0.25"/><line class="cls-6" x1="33.12" y1="55.48" x2="33.12" y2="63.73"/><rect class="cls-7" x="32.31" y="55.35" width="1.63" height="0.25"/><rect class="cls-7" x="32.31" y="63.61" width="1.63" height="0.25"/><path class="cls-7" d="M23.41,170.22v-3.74h1L28,168.84a4.9,4.9,0,0,0,.44.26.84.84,0,0,0,.38.08H29v.66h-.29a1.12,1.12,0,0,1-.27,0,1.14,1.14,0,0,1-.26-.09,1.91,1.91,0,0,1-.28-.15,3.81,3.81,0,0,1-.34-.22l-3.44-2.29H24v3.16Z"/><path class="cls-7" d="M28.38,161.55H29v3.79h-1a1.71,1.71,0,0,1-.67-.12,1.48,1.48,0,0,1-.49-.37,1.88,1.88,0,0,1-.34-.57,4.56,4.56,0,0,1-.23-.76,2.25,2.25,0,0,0-.46-1,1,1,0,0,0-.73-.31h0a1.25,1.25,0,0,0-.43.07,1.07,1.07,0,0,0-.37.22.91.91,0,0,0-.27.39,1.4,1.4,0,0,0-.1.56,1.22,1.22,0,0,0,.37,1,1.43,1.43,0,0,0,1,.34h.36v.67h-.4a2,2,0,0,1-.74-.13,1.86,1.86,0,0,1-.62-.37,1.75,1.75,0,0,1-.44-.62,2.22,2.22,0,0,1-.16-.85,2.17,2.17,0,0,1,.15-.84,1.83,1.83,0,0,1,.39-.6A1.72,1.72,0,0,1,25,161.5h.15a1.63,1.63,0,0,1,1.09.4,2.31,2.31,0,0,1,.64,1.28,2.9,2.9,0,0,0,.45,1.13.94.94,0,0,0,.8.36h.24Z"/><path class="cls-7" d="M26.22,60.16h-.93l-1.16-1.83H24V61.5h-.62V57.76h1l1.17,1.82h.09v-.32a1.78,1.78,0,0,1,.11-.61,1.62,1.62,0,0,1,.3-.53,1.81,1.81,0,0,1,.49-.37,1.62,1.62,0,0,1,.68-.14h.14a1.57,1.57,0,0,1,.68.15,1.72,1.72,0,0,1,.54.4,2,2,0,0,1,.36.6,2.33,2.33,0,0,1,.13.76,2.3,2.3,0,0,1-.15.85,1.72,1.72,0,0,1-1,1,2,2,0,0,1-.73.14h-.43v-.67h.38a1.44,1.44,0,0,0,.54-.1,1.15,1.15,0,0,0,.4-.28,1.24,1.24,0,0,0,.26-.43,1.57,1.57,0,0,0,.08-.54,1.33,1.33,0,0,0-.08-.49,1.14,1.14,0,0,0-.25-.39,1,1,0,0,0-.37-.27,1.13,1.13,0,0,0-.45-.09h-.05a1,1,0,0,0-.78.32,1.16,1.16,0,0,0-.29.8Z"/><line class="cls-6" x1="13.12" y1="55.48" x2="13.12" y2="361.37"/><rect class="cls-7" x="12.31" y="55.35" width="1.63" height="0.25"/><rect class="cls-7" x="12.31" y="361.25" width="1.63" height="0.25"/><path class="cls-7" d="M8.38,213.62H3.7v.09l2.11.92v.67h0l-2.35-1.05v-1.31h5v-1.58H9v3.84H8.38Z"/><path class="cls-7" d="M5.58,210.39a2.49,2.49,0,0,1-1.69-.52,2,2,0,0,1,0-2.89,2.49,2.49,0,0,1,1.69-.52H6.83a2.44,2.44,0,0,1,1.7.52,2.06,2.06,0,0,1,0,2.89,2.44,2.44,0,0,1-1.7.52Zm2.93-2a1.12,1.12,0,0,0-.45-1,2.22,2.22,0,0,0-1.28-.32H5.63a3,3,0,0,0-.7.08,1.48,1.48,0,0,0-.54.24,1.18,1.18,0,0,0-.36.41,1.13,1.13,0,0,0-.13.56A1.14,1.14,0,0,0,4,209a1.18,1.18,0,0,0,.36.41,1.48,1.48,0,0,0,.54.24,3,3,0,0,0,.7.08H6.78a2.22,2.22,0,0,0,1.28-.32A1.13,1.13,0,0,0,8.51,208.42Zm-2.3.52a.55.55,0,0,1-.52-.52.52.52,0,0,1,.88-.36.53.53,0,0,1,.15.36.49.49,0,0,1-.15.36A.46.46,0,0,1,6.21,208.94Z"/><path class="cls-7" d="M9.12,203.6a2.35,2.35,0,0,1-.12.77,1.6,1.6,0,0,1-.32.59,1.27,1.27,0,0,1-.48.38,1.32,1.32,0,0,1-.6.13H7.5a1.6,1.6,0,0,1-.51-.08,1.28,1.28,0,0,1-.39-.24,1.12,1.12,0,0,1-.28-.33,1.36,1.36,0,0,1-.17-.39h-.1a1.11,1.11,0,0,1-.16.35,1.79,1.79,0,0,1-.27.28,1.33,1.33,0,0,1-.35.2,1.16,1.16,0,0,1-.42.07h-.1a1.31,1.31,0,0,1-.59-.13,1.34,1.34,0,0,1-.46-.36,1.77,1.77,0,0,1-.3-.56,2.38,2.38,0,0,1-.11-.73v-.05a2.36,2.36,0,0,1,.11-.72,1.77,1.77,0,0,1,.3-.56,1.23,1.23,0,0,1,.46-.36,1.31,1.31,0,0,1,.59-.13h.1a1.16,1.16,0,0,1,.42.07,1.1,1.1,0,0,1,.35.2,1.79,1.79,0,0,1,.27.28,1.31,1.31,0,0,1,.16.34h.1a1.43,1.43,0,0,1,.17-.38,1.12,1.12,0,0,1,.28-.33,1.28,1.28,0,0,1,.39-.24,1.36,1.36,0,0,1,.51-.09h.1a1.33,1.33,0,0,1,.6.14,1.27,1.27,0,0,1,.48.38,1.6,1.6,0,0,1,.32.59,2.3,2.3,0,0,1,.12.77Zm-3.33-.07a1.26,1.26,0,0,0-.26-.82.84.84,0,0,0-.67-.31H4.81a.81.81,0,0,0-.66.31,1.29,1.29,0,0,0-.25.82,1.31,1.31,0,0,0,.25.82.83.83,0,0,0,.66.31h.05a.87.87,0,0,0,.67-.31A1.26,1.26,0,0,0,5.79,203.53Zm2.72-.05a1.31,1.31,0,0,0-.28-.88.9.9,0,0,0-.73-.34h0a.9.9,0,0,0-.76.34,1.4,1.4,0,0,0-.28.9v.05a1.36,1.36,0,0,0,.28.9.91.91,0,0,0,.76.35h0a.9.9,0,0,0,.73-.34,1.33,1.33,0,0,0,.28-.88Z"/><line class="cls-6" x1="353.6" y1="35.35" x2="64.71" y2="35.35"/><rect class="cls-7" x="353.47" y="34.54" width="0.25" height="1.63"/><rect class="cls-7" x="64.59" y="34.54" width="0.25" height="1.63"/><line class="cls-6" x1="588.87" y1="35.35" x2="447.39" y2="35.35"/><rect class="cls-7" x="588.75" y="34.54" width="0.25" height="1.63"/><rect class="cls-7" x="447.27" y="34.54" width="0.25" height="1.63"/><line class="cls-6" x1="810.38" y1="35.35" x2="980.21" y2="35.35"/><rect class="cls-7" x="810.26" y="34.54" width="0.25" height="1.63"/><rect class="cls-7" x="980.09" y="34.54" width="0.25" height="1.63"/><path class="cls-7" d="M204,30.62V25.94h-.09L203,28h-.67V28l1.05-2.35h1.31v5h1.58v.62h-3.84v-.62Z"/><path class="cls-7" d="M207.19,27.82a2.48,2.48,0,0,1,.52-1.69,2,2,0,0,1,2.89,0,2.48,2.48,0,0,1,.52,1.69v1.25a2.47,2.47,0,0,1-.52,1.7,2.09,2.09,0,0,1-2.89,0,2.47,2.47,0,0,1-.52-1.7Zm2,2.93a1.11,1.11,0,0,0,1-.46,2.18,2.18,0,0,0,.32-1.27V27.87a2.54,2.54,0,0,0-.08-.7,1.53,1.53,0,0,0-.24-.55,1.15,1.15,0,0,0-.41-.35,1.13,1.13,0,0,0-.56-.13,1.18,1.18,0,0,0-1,.48,1.53,1.53,0,0,0-.24.55,3,3,0,0,0-.08.7V29a2.18,2.18,0,0,0,.32,1.27A1.11,1.11,0,0,0,209.16,30.75Zm-.52-2.31a.46.46,0,0,1,.16-.36.49.49,0,0,1,.36-.15.53.53,0,0,1,.36.15.51.51,0,0,1,0,.72.53.53,0,0,1-.36.15.49.49,0,0,1-.36-.15A.46.46,0,0,1,208.64,28.44Z"/><path class="cls-7" d="M216,30.62v.62h-3.8v-1a1.74,1.74,0,0,1,.13-.67,1.44,1.44,0,0,1,.37-.48,1.76,1.76,0,0,1,.57-.34,5.69,5.69,0,0,1,.76-.24,2.15,2.15,0,0,0,1-.45,1,1,0,0,0,.31-.73v-.05a1.23,1.23,0,0,0-.07-.42,1.11,1.11,0,0,0-.22-.38,1.23,1.23,0,0,0-.39-.27,1.61,1.61,0,0,0-.57-.1,1.21,1.21,0,0,0-1,.38,1.41,1.41,0,0,0-.34,1v.35h-.67v-.4a2.24,2.24,0,0,1,.12-.73,1.83,1.83,0,0,1,.38-.63,1.86,1.86,0,0,1,.62-.43,2,2,0,0,1,.84-.16,2.19,2.19,0,0,1,.85.15,1.83,1.83,0,0,1,.6.39,1.64,1.64,0,0,1,.36.55,1.74,1.74,0,0,1,.11.63v.14a1.59,1.59,0,0,1-.4,1.1,2.31,2.31,0,0,1-1.28.64,2.92,2.92,0,0,0-1.12.44,1,1,0,0,0-.36.81v.24Z"/><line class="cls-6" x1="362.1" y1="15.35" x2="56.21" y2="15.35"/><rect class="cls-7" x="361.98" y="14.54" width="0.25" height="1.63"/><rect class="cls-7" x="56.08" y="14.54" width="0.25" height="1.63"/><path class="cls-7" d="M204,10.62V5.94h-.09L203,8h-.67V8l1.05-2.35h1.31v5h1.58v.62h-3.84v-.62Z"/><path class="cls-7" d="M207.19,7.82a2.48,2.48,0,0,1,.52-1.69,2,2,0,0,1,2.89,0,2.48,2.48,0,0,1,.52,1.69V9.07a2.47,2.47,0,0,1-.52,1.7,2.09,2.09,0,0,1-2.89,0,2.47,2.47,0,0,1-.52-1.7Zm2,2.93a1.11,1.11,0,0,0,1-.46A2.18,2.18,0,0,0,210.45,9V7.87a2.54,2.54,0,0,0-.08-.7,1.53,1.53,0,0,0-.24-.55,1.15,1.15,0,0,0-.41-.35,1.13,1.13,0,0,0-.56-.13,1.18,1.18,0,0,0-1,.48,1.53,1.53,0,0,0-.24.55,3,3,0,0,0-.08.7V9a2.18,2.18,0,0,0,.32,1.27A1.11,1.11,0,0,0,209.16,10.75Zm-.52-2.31a.46.46,0,0,1,.16-.36.49.49,0,0,1,.36-.15.53.53,0,0,1,.36.15.51.51,0,0,1,0,.72.53.53,0,0,1-.36.15.49.49,0,0,1-.36-.15A.46.46,0,0,1,208.64,8.44Z"/><path class="cls-7" d="M214,11.35a2.35,2.35,0,0,1-.77-.11,2.08,2.08,0,0,1-.59-.32,1.44,1.44,0,0,1-.38-.48,1.39,1.39,0,0,1-.13-.61V9.74a1.36,1.36,0,0,1,.09-.51,1.23,1.23,0,0,1,.23-.4,1.29,1.29,0,0,1,.33-.28,1.46,1.46,0,0,1,.39-.16v-.1a1.26,1.26,0,0,1-.35-.17,1.37,1.37,0,0,1-.28-.26,1.33,1.33,0,0,1-.2-.35,1.43,1.43,0,0,1-.07-.43V7a1.28,1.28,0,0,1,.13-.59,1.47,1.47,0,0,1,.36-.46,1.77,1.77,0,0,1,.56-.3,2.38,2.38,0,0,1,.73-.11h.05a2.36,2.36,0,0,1,.72.11,1.77,1.77,0,0,1,.56.3,1.23,1.23,0,0,1,.36.46,1.28,1.28,0,0,1,.13.59v.09a1.18,1.18,0,0,1-.07.43,1.1,1.1,0,0,1-.2.35,1.16,1.16,0,0,1-.28.26,1.35,1.35,0,0,1-.34.17v.1a1.4,1.4,0,0,1,.38.16,1.54,1.54,0,0,1,.34.28,1.74,1.74,0,0,1,.23.4,1.36,1.36,0,0,1,.09.51v.09a1.4,1.4,0,0,1-.14.61,1.33,1.33,0,0,1-.38.48,2,2,0,0,1-.59.32,2.31,2.31,0,0,1-.77.11Zm.12-.6a1.36,1.36,0,0,0,.88-.28.9.9,0,0,0,.34-.73V9.69a.92.92,0,0,0-.34-.77,1.46,1.46,0,0,0-.9-.27H214a1.42,1.42,0,0,0-.9.27.93.93,0,0,0-.35.77v.05a.9.9,0,0,0,.34.73,1.38,1.38,0,0,0,.88.28Zm0-2.72a1.21,1.21,0,0,0,.82-.27.81.81,0,0,0,.31-.66v0a.81.81,0,0,0-.31-.66,1.24,1.24,0,0,0-.82-.25,1.25,1.25,0,0,0-.82.25.83.83,0,0,0-.31.66v0a.81.81,0,0,0,.32.66A1.18,1.18,0,0,0,214.05,8Z"/><line class="cls-6" x1="588.87" y1="384.88" x2="517.34" y2="384.88"/><rect class="cls-7" x="588.75" y="384.07" width="0.25" height="1.63"/><rect class="cls-7" x="517.22" y="384.07" width="0.25" height="1.63"/><line class="cls-8" x1="650.06" y1="314.28" x2="592.63" y2="334.69"/><line class="cls-8" x1="658.04" y1="361.5" x2="527.22" y2="361.5"/><line class="cls-6" x1="722.23" y1="336.11" x2="722.23" y2="361.37"/><rect class="cls-7" x="721.41" y="335.98" width="1.63" height="0.25"/><rect class="cls-7" x="721.41" y="361.25" width="1.63" height="0.25"/><path class="cls-7" d="M513.86,28.6v-3h3.5v.63h-2.84v2h.09a1.54,1.54,0,0,1,.21-.31,1.48,1.48,0,0,1,.3-.26,1.17,1.17,0,0,1,.39-.18,1.43,1.43,0,0,1,.48-.07,1.87,1.87,0,0,1,.71.13,1.46,1.46,0,0,1,.55.36,1.57,1.57,0,0,1,.37.56,2.11,2.11,0,0,1,.13.73v.14a2.13,2.13,0,0,1-.13.76,2,2,0,0,1-.38.63,1.69,1.69,0,0,1-.61.43,2.08,2.08,0,0,1-.85.16,2.28,2.28,0,0,1-.86-.14,1.88,1.88,0,0,1-.64-.4,1.58,1.58,0,0,1-.38-.6,2.14,2.14,0,0,1-.14-.76v-.22h.68v.17a1.26,1.26,0,0,0,.37,1,1.41,1.41,0,0,0,1,.33,1.25,1.25,0,0,0,.56-.12,1.06,1.06,0,0,0,.41-.31,1.41,1.41,0,0,0,.25-.45,2,2,0,0,0,.08-.54v0a1.23,1.23,0,0,0-.09-.47,1.1,1.1,0,0,0-.23-.37,1,1,0,0,0-.36-.25,1.19,1.19,0,0,0-.46-.1,1.06,1.06,0,0,0-.31.05.92.92,0,0,0-.24.13.55.55,0,0,0-.17.17.54.54,0,0,0-.1.18Z"/><path class="cls-7" d="M518.61,27.82a2.53,2.53,0,0,1,.52-1.69,2.05,2.05,0,0,1,2.9,0,2.53,2.53,0,0,1,.52,1.69v1.25a2.52,2.52,0,0,1-.52,1.7,2.1,2.1,0,0,1-2.9,0,2.52,2.52,0,0,1-.52-1.7Zm2,2.93a1.09,1.09,0,0,0,1-.46,2.11,2.11,0,0,0,.33-1.27V27.87a3,3,0,0,0-.08-.7,1.74,1.74,0,0,0-.25-.55,1.07,1.07,0,0,0-.41-.35,1.13,1.13,0,0,0-.56-.13,1.14,1.14,0,0,0-.57.13,1.12,1.12,0,0,0-.4.35,1.74,1.74,0,0,0-.25.55,3,3,0,0,0-.08.7V29a2.11,2.11,0,0,0,.33,1.27A1.09,1.09,0,0,0,520.58,30.75Zm-.51-2.31a.51.51,0,1,1,.15.36A.49.49,0,0,1,520.07,28.44Z"/><path class="cls-7" d="M894,27.27a1.13,1.13,0,0,0-.32-.83,1.23,1.23,0,0,0-.89-.32,1.18,1.18,0,0,0-.5.1,1.05,1.05,0,0,0-.39.27,1.34,1.34,0,0,0-.26.43,1.63,1.63,0,0,0-.09.55v.83h.09a1.33,1.33,0,0,1,.55-.55,1.56,1.56,0,0,1,.8-.2,2.08,2.08,0,0,1,.71.12,1.42,1.42,0,0,1,.56.36,1.75,1.75,0,0,1,.37.58,2.13,2.13,0,0,1,.13.78v.09a2.06,2.06,0,0,1-.14.76,1.78,1.78,0,0,1-.41.59,1.81,1.81,0,0,1-.62.39,2.15,2.15,0,0,1-.77.13,2.11,2.11,0,0,1-.77-.13,2,2,0,0,1-.62-.38,1.78,1.78,0,0,1-.41-.59,2,2,0,0,1-.14-.74v-2a2,2,0,0,1,.15-.8,1.92,1.92,0,0,1,.41-.62,2,2,0,0,1,.62-.38,2,2,0,0,1,.74-.14,2.27,2.27,0,0,1,.75.12,1.74,1.74,0,0,1,.59.35,1.57,1.57,0,0,1,.39.55,1.89,1.89,0,0,1,.14.72Zm-1.18,3.49a1.42,1.42,0,0,0,.52-.09,1.15,1.15,0,0,0,.41-.26A1,1,0,0,0,894,30a1.36,1.36,0,0,0,.09-.51v-.1a1.44,1.44,0,0,0-.09-.51,1.41,1.41,0,0,0-.27-.4,1.11,1.11,0,0,0-.4-.26,1.44,1.44,0,0,0-.51-.09,1.35,1.35,0,0,0-.5.09,1.46,1.46,0,0,0-.41.27,1.36,1.36,0,0,0-.27.39,1.28,1.28,0,0,0-.09.48v.15a1.3,1.3,0,0,0,.09.49,1.09,1.09,0,0,0,.25.4,1.15,1.15,0,0,0,.41.26A1.42,1.42,0,0,0,892.85,30.76Z"/><path class="cls-7" d="M895.78,27.82a2.48,2.48,0,0,1,.52-1.69,1.82,1.82,0,0,1,1.45-.6,1.8,1.8,0,0,1,1.44.6,2.48,2.48,0,0,1,.52,1.69v1.25a2.47,2.47,0,0,1-.52,1.7,1.82,1.82,0,0,1-1.44.58,1.84,1.84,0,0,1-1.45-.58,2.47,2.47,0,0,1-.52-1.7Zm2,2.93a1.11,1.11,0,0,0,1-.46A2.18,2.18,0,0,0,899,29V27.87a2.54,2.54,0,0,0-.08-.7,1.53,1.53,0,0,0-.24-.55,1.15,1.15,0,0,0-.41-.35,1.13,1.13,0,0,0-.56-.13,1.18,1.18,0,0,0-1,.48,1.53,1.53,0,0,0-.24.55,3,3,0,0,0-.08.7V29a2.18,2.18,0,0,0,.32,1.27A1.11,1.11,0,0,0,897.75,30.75Zm-.52-2.31a.46.46,0,0,1,.16-.36.49.49,0,0,1,.36-.15.53.53,0,0,1,.36.15.51.51,0,0,1,0,.72.53.53,0,0,1-.36.15.49.49,0,0,1-.36-.15A.46.46,0,0,1,897.23,28.44Z"/><path class="cls-7" d="M552.56,393.47v.63h-3.79v-1a1.54,1.54,0,0,1,.13-.67,1.36,1.36,0,0,1,.36-.49,1.93,1.93,0,0,1,.58-.34,4.29,4.29,0,0,1,.76-.23,2.21,2.21,0,0,0,1-.46,1,1,0,0,0,.32-.73v0a1.16,1.16,0,0,0-.3-.81,1,1,0,0,0-.38-.26,1.42,1.42,0,0,0-.57-.1,1.24,1.24,0,0,0-1,.37,1.47,1.47,0,0,0-.33,1v.35h-.68v-.39a2.26,2.26,0,0,1,.13-.74,1.93,1.93,0,0,1,.38-.63,1.82,1.82,0,0,1,.61-.43,2.26,2.26,0,0,1,.85-.16,2.19,2.19,0,0,1,.85.15,1.83,1.83,0,0,1,.6.39,1.74,1.74,0,0,1,.36.55,2,2,0,0,1,.11.63v.15a1.58,1.58,0,0,1-.4,1.09,2.34,2.34,0,0,1-1.28.64,3,3,0,0,0-1.13.45.94.94,0,0,0-.36.8v.24Z"/><path class="cls-7" d="M553.73,391.45v-3h3.5v.63h-2.84v2h.09a2.11,2.11,0,0,1,.21-.31,1.87,1.87,0,0,1,.3-.26,2,2,0,0,1,.39-.18,1.73,1.73,0,0,1,.48-.07,2.08,2.08,0,0,1,.71.13,1.75,1.75,0,0,1,.55.36,1.66,1.66,0,0,1,.37.56,2.11,2.11,0,0,1,.13.73v.14a2.13,2.13,0,0,1-.13.76,1.69,1.69,0,0,1-.38.63,1.71,1.71,0,0,1-.61.44,2.26,2.26,0,0,1-.85.16,2.31,2.31,0,0,1-.86-.15,1.83,1.83,0,0,1-.64-.4,1.58,1.58,0,0,1-.38-.6,2.09,2.09,0,0,1-.13-.76v-.22h.67v.18a1.25,1.25,0,0,0,.37,1,1.41,1.41,0,0,0,1,.33,1.48,1.48,0,0,0,.57-.11,1.13,1.13,0,0,0,.4-.32,1.41,1.41,0,0,0,.25-.45,1.91,1.91,0,0,0,.08-.54v-.05a1.18,1.18,0,0,0-.09-.46,1,1,0,0,0-.23-.38,1,1,0,0,0-.36-.25,1.14,1.14,0,0,0-.46-.09,1.06,1.06,0,0,0-.31,0,1.36,1.36,0,0,0-.24.13.69.69,0,0,0-.17.17.5.5,0,0,0-.09.18Z"/><line class="cls-6" x1="362.1" y1="384.88" x2="308.04" y2="384.88"/><rect class="cls-7" x="361.98" y="384.07" width="0.25" height="1.63"/><rect class="cls-7" x="307.91" y="384.07" width="0.25" height="1.63"/><path class="cls-7" d="M332.32,393.47v-4.68h-.09l-.92,2.1h-.66v0l1-2.36H333v5h1.58v.63h-3.84v-.63Z"/><path class="cls-7" d="M336.34,392.46a1.14,1.14,0,0,0,.32.84,1.21,1.21,0,0,0,.89.31,1.35,1.35,0,0,0,.5-.09,1.21,1.21,0,0,0,.39-.28,1.29,1.29,0,0,0,.26-.42,1.59,1.59,0,0,0,.09-.55v-.83h-.1a1.38,1.38,0,0,1-.52.55,1.62,1.62,0,0,1-.81.2,2,2,0,0,1-.71-.12,1.65,1.65,0,0,1-.57-.35,1.52,1.52,0,0,1-.37-.58,2,2,0,0,1-.14-.77v-.09a2,2,0,0,1,.15-.77,1.75,1.75,0,0,1,.4-.6,2,2,0,0,1,.62-.39,2.13,2.13,0,0,1,.78-.14,2.21,2.21,0,0,1,.78.14,2.12,2.12,0,0,1,.61.39,1.74,1.74,0,0,1,.41.59,2.06,2.06,0,0,1,.14.76v2a2,2,0,0,1-.15.8,1.73,1.73,0,0,1-.41.61,1.68,1.68,0,0,1-.61.39,2.1,2.1,0,0,1-.76.14,2.27,2.27,0,0,1-.75-.12,1.64,1.64,0,0,1-1-.9,1.9,1.9,0,0,1-.13-.73Zm1.18-3.49a1.47,1.47,0,0,0-.53.1,1.41,1.41,0,0,0-.4.27,1.29,1.29,0,0,0-.26.42,1.35,1.35,0,0,0-.09.5v.1a1.36,1.36,0,0,0,.1.51,1.16,1.16,0,0,0,.26.39,1.28,1.28,0,0,0,.4.25,1.46,1.46,0,0,0,.52.09,1.35,1.35,0,0,0,.5-.09,1.24,1.24,0,0,0,.4-.25,1.05,1.05,0,0,0,.27-.39,1.12,1.12,0,0,0,.1-.48v-.15a1.39,1.39,0,0,0-.09-.5,1.07,1.07,0,0,0-.26-.4,1.13,1.13,0,0,0-.4-.27A1.46,1.46,0,0,0,337.52,389Z"/><line class="cls-6" x1="747.77" y1="384.88" x2="742.35" y2="384.88"/><rect class="cls-7" x="747.65" y="384.07" width="0.25" height="1.63"/><rect class="cls-7" x="742.23" y="384.07" width="0.25" height="1.63"/><path class="cls-7" d="M747,393.47v.63h-3.8v-1a1.7,1.7,0,0,1,.13-.67,1.38,1.38,0,0,1,.37-.49,1.76,1.76,0,0,1,.57-.34,4.56,4.56,0,0,1,.76-.23,2.3,2.3,0,0,0,1-.46,1,1,0,0,0,.31-.73v0a1.25,1.25,0,0,0-.07-.43,1.22,1.22,0,0,0-.22-.38,1.16,1.16,0,0,0-.39-.26,1.42,1.42,0,0,0-.57-.1,1.2,1.2,0,0,0-1,.37,1.43,1.43,0,0,0-.34,1v.35h-.67v-.39a2.25,2.25,0,0,1,.12-.74,1.93,1.93,0,0,1,.38-.63,1.86,1.86,0,0,1,.62-.43,2.38,2.38,0,0,1,1.69,0,1.83,1.83,0,0,1,.6.39,1.61,1.61,0,0,1,.47,1.18v.15a1.58,1.58,0,0,1-.4,1.09,2.31,2.31,0,0,1-1.28.64,2.91,2.91,0,0,0-1.12.45.94.94,0,0,0-.36.8v.24Z"/><path class="cls-7" d="M395,382.11a1.7,1.7,0,0,1-.6-.76,3.07,3.07,0,0,1-.21-1.2v-1.24a2.53,2.53,0,0,1,.52-1.69,1.82,1.82,0,0,1,1.45-.6,2.16,2.16,0,0,1,.62.09l.19-.57.56.17-.22.65a1.87,1.87,0,0,1,.61.77,3,3,0,0,1,.21,1.18v1.24a2.48,2.48,0,0,1-.52,1.71,1.84,1.84,0,0,1-1.45.58,2,2,0,0,1-.62-.08l-.21.66-.57-.18Zm-.14-2a2.08,2.08,0,0,0,.37,1.32l1.35-4.12a1.2,1.2,0,0,0-.42-.07,1.11,1.11,0,0,0-1,.47,2.14,2.14,0,0,0-.33,1.24Zm1.3,1.71a1.11,1.11,0,0,0,1-.45,2.08,2.08,0,0,0,.33-1.26V379a2.06,2.06,0,0,0-.37-1.29l-1.35,4.1A1.33,1.33,0,0,0,396.15,381.82Z"/><path class="cls-7" d="M400.75,381.71V377h-.1l-.92,2.1h-.66v-.05l1.05-2.35h1.3v5H403v.62h-3.84v-.62Z"/><path class="cls-7" d="M404,378.91a2.53,2.53,0,0,1,.51-1.69,2.05,2.05,0,0,1,2.9,0,2.48,2.48,0,0,1,.52,1.69v1.24a2.48,2.48,0,0,1-.52,1.71,2.1,2.1,0,0,1-2.9,0,2.53,2.53,0,0,1-.51-1.71Zm2,2.92a1.11,1.11,0,0,0,1-.45,2.13,2.13,0,0,0,.33-1.27V379a3.06,3.06,0,0,0-.08-.7,1.49,1.49,0,0,0-.25-.54,1.16,1.16,0,0,0-.4-.36,1.29,1.29,0,0,0-.57-.12,1.26,1.26,0,0,0-.57.12,1.37,1.37,0,0,0-.4.36,1.48,1.48,0,0,0-.24.54,2.59,2.59,0,0,0-.08.7v1.16a2.13,2.13,0,0,0,.32,1.27A1.12,1.12,0,0,0,405.94,381.83Zm-.51-2.3a.51.51,0,1,1,.15.36A.49.49,0,0,1,405.43,379.53Z"/><path class="cls-7" d="M410.28,378.81a.55.55,0,0,1,.56-.56.51.51,0,0,1,.39.16.54.54,0,0,1,.17.4.56.56,0,0,1-.17.4.55.55,0,0,1-.39.16.58.58,0,0,1-.4-.16A.55.55,0,0,1,410.28,378.81Zm0,3.07a.53.53,0,0,1,.16-.39.54.54,0,0,1,.4-.17.52.52,0,0,1,.39.17.54.54,0,0,1,.17.39.54.54,0,0,1-.17.4.51.51,0,0,1-.39.16.55.55,0,0,1-.56-.56Z"/><path class="cls-7" d="M414.57,382.11a1.62,1.62,0,0,1-.59-.76,3.07,3.07,0,0,1-.21-1.2v-1.24a2.48,2.48,0,0,1,.52-1.69,1.8,1.8,0,0,1,1.44-.6,2.18,2.18,0,0,1,.63.09l.18-.57.56.17-.21.65a1.85,1.85,0,0,1,.6.77,3,3,0,0,1,.21,1.18v1.24a2.48,2.48,0,0,1-.52,1.71,1.83,1.83,0,0,1-1.45.58,1.88,1.88,0,0,1-.61-.08l-.22.66-.57-.18Zm-.13-2a2.08,2.08,0,0,0,.36,1.32l1.36-4.12a1.25,1.25,0,0,0-.43-.07,1.11,1.11,0,0,0-1,.47,2.21,2.21,0,0,0-.32,1.24Zm1.29,1.71a1.13,1.13,0,0,0,1-.45,2.15,2.15,0,0,0,.32-1.26V379a2,2,0,0,0-.37-1.29l-1.34,4.1A1.22,1.22,0,0,0,415.73,381.82Z"/><path class="cls-7" d="M420.33,381.71V377h-.09l-.92,2.1h-.67v-.05l1.05-2.35H421v5h1.58v.62h-3.84v-.62Z"/><path class="cls-7" d="M425.23,381.71V377h-.09l-.92,2.1h-.67v-.05l1.05-2.35h1.3v5h1.59v.62h-3.84v-.62Z"/><path class="cls-7" d="M654.87,338.63V334h-.1l-.92,2.1h-.66v0l1-2.36h1.3v5h1.58v.62h-3.84v-.62Z"/><path class="cls-7" d="M658.88,337.62a1.14,1.14,0,0,0,.32.84,1.22,1.22,0,0,0,.89.31,1.35,1.35,0,0,0,.5-.09,1.11,1.11,0,0,0,.39-.28,1.29,1.29,0,0,0,.26-.42,1.59,1.59,0,0,0,.09-.55v-.83h-.09a1.4,1.4,0,0,1-.53.55,1.61,1.61,0,0,1-.8.2,2.09,2.09,0,0,1-.72-.12,1.54,1.54,0,0,1-.57-.36,1.52,1.52,0,0,1-.37-.57,2,2,0,0,1-.13-.77v-.09a2,2,0,0,1,.14-.77,1.91,1.91,0,0,1,.4-.6,2.18,2.18,0,0,1,.62-.39,2.24,2.24,0,0,1,1.56,0,2.18,2.18,0,0,1,.62.39,1.81,1.81,0,0,1,.54,1.34v2a2,2,0,0,1-.14.8,1.79,1.79,0,0,1-1,1,2.14,2.14,0,0,1-.76.14,2.29,2.29,0,0,1-.76-.12,1.85,1.85,0,0,1-.59-.35,1.64,1.64,0,0,1-.38-.55,1.9,1.9,0,0,1-.14-.73Zm1.18-3.49a1.42,1.42,0,0,0-.52.1,1.17,1.17,0,0,0-.41.27,1.33,1.33,0,0,0-.25.41,1.44,1.44,0,0,0-.09.51v.1a1.4,1.4,0,0,0,.09.51,1.36,1.36,0,0,0,.27.39,1.09,1.09,0,0,0,.4.25,1.36,1.36,0,0,0,.51.09,1.35,1.35,0,0,0,.5-.09,1.43,1.43,0,0,0,.41-.26,1.19,1.19,0,0,0,.27-.38,1.28,1.28,0,0,0,.09-.48v-.15a1.39,1.39,0,0,0-.09-.5,1.13,1.13,0,0,0-.66-.67A1.42,1.42,0,0,0,660.06,334.13Z"/><path class="cls-7" d="M664.4,338.81a.55.55,0,0,1,.56-.56.53.53,0,0,1,.39.16.54.54,0,0,1,.17.4.58.58,0,0,1-.56.56.54.54,0,0,1-.4-.17A.53.53,0,0,1,664.4,338.81Z"/><path class="cls-7" d="M669.78,339.37a2.35,2.35,0,0,1-.77-.12,1.86,1.86,0,0,1-.59-.32,1.58,1.58,0,0,1-.38-.48,1.35,1.35,0,0,1-.13-.6v-.1a1.36,1.36,0,0,1,.09-.51,1.26,1.26,0,0,1,.23-.39,1.1,1.1,0,0,1,.33-.28,1.49,1.49,0,0,1,.39-.17v-.1a1.26,1.26,0,0,1-.35-.17,1.37,1.37,0,0,1-.28-.26,1.33,1.33,0,0,1-.2-.35,1.43,1.43,0,0,1-.07-.43V335a1.45,1.45,0,0,1,.13-.59,1.47,1.47,0,0,1,.36-.46,1.77,1.77,0,0,1,.56-.3,2.38,2.38,0,0,1,.73-.11h0a2.36,2.36,0,0,1,.72.11,1.77,1.77,0,0,1,.56.3,1.23,1.23,0,0,1,.36.46,1.31,1.31,0,0,1,.13.59v.09a1.18,1.18,0,0,1-.07.43,1.1,1.1,0,0,1-.2.35,1.16,1.16,0,0,1-.28.26,1.35,1.35,0,0,1-.34.17v.1a1.65,1.65,0,0,1,.39.17,1.23,1.23,0,0,1,.33.28,1.49,1.49,0,0,1,.23.39,1.36,1.36,0,0,1,.09.51v.1a1.36,1.36,0,0,1-.14.6,1.33,1.33,0,0,1-.38.48,1.76,1.76,0,0,1-.59.32,2.3,2.3,0,0,1-.77.12Zm.12-.61a1.31,1.31,0,0,0,.88-.28.9.9,0,0,0,.34-.73v-.05a.93.93,0,0,0-.34-.77,1.46,1.46,0,0,0-.9-.27h0a1.42,1.42,0,0,0-.9.27.94.94,0,0,0-.35.77v.05a.9.9,0,0,0,.34.73,1.33,1.33,0,0,0,.88.28Zm0-2.72a1.21,1.21,0,0,0,.82-.27.81.81,0,0,0,.31-.66v-.05a.81.81,0,0,0-.31-.66,1.24,1.24,0,0,0-.82-.25,1.25,1.25,0,0,0-.82.25.83.83,0,0,0-.31.66v.05a.81.81,0,0,0,.32.66A1.18,1.18,0,0,0,669.85,336Z"/><path class="cls-7" d="M673.59,334.7a1.13,1.13,0,0,1,.09-.45,1.15,1.15,0,0,1,.25-.37,1.27,1.27,0,0,1,.37-.25,1.17,1.17,0,0,1,.9,0,1.6,1.6,0,0,1,.37.25,1.34,1.34,0,0,1,.25.37,1.17,1.17,0,0,1,0,.9,1.1,1.1,0,0,1-.25.37,1.15,1.15,0,0,1-.37.25,1.17,1.17,0,0,1-.9,0,1.17,1.17,0,0,1-.62-.62A1.13,1.13,0,0,1,673.59,334.7Zm.57,0a.58.58,0,0,0,1,.41.57.57,0,0,0,.17-.41.58.58,0,0,0-.17-.41.58.58,0,0,0-.82,0A.55.55,0,0,0,674.16,334.7Z"/><path class="cls-7" d="M716.6,349.92a1.13,1.13,0,0,0,.83-.32,1.23,1.23,0,0,0,.32-.89,1.18,1.18,0,0,0-.1-.5,1.05,1.05,0,0,0-.27-.39,1.34,1.34,0,0,0-.43-.26,1.55,1.55,0,0,0-.55-.09h-.83v.09a1.34,1.34,0,0,1,.55.53,1.51,1.51,0,0,1,.2.8,2.09,2.09,0,0,1-.12.72,1.52,1.52,0,0,1-.35.57,1.7,1.7,0,0,1-.57.37,2.07,2.07,0,0,1-.77.13h-.1a1.87,1.87,0,0,1-.76-.14,1.91,1.91,0,0,1-.6-.4,1.81,1.81,0,0,1-.39-.62,2.24,2.24,0,0,1,0-1.56,1.8,1.8,0,0,1,.38-.61,1.78,1.78,0,0,1,.6-.41,2,2,0,0,1,.75-.14h2a2.29,2.29,0,0,1,.81.14,2,2,0,0,1,.61.41,2,2,0,0,1,.38.61,2.14,2.14,0,0,1,.14.76,2.29,2.29,0,0,1-.12.76,1.74,1.74,0,0,1-.35.59,1.55,1.55,0,0,1-.55.38,1.89,1.89,0,0,1-.72.14Zm-3.49-1.18a1.42,1.42,0,0,0,.09.52,1.2,1.2,0,0,0,.28.41,1.15,1.15,0,0,0,.41.26,1.65,1.65,0,0,0,.51.08h.09a1.16,1.16,0,0,0,.9-.36,1,1,0,0,0,.25-.4,1.36,1.36,0,0,0,.09-.51,1.35,1.35,0,0,0-.09-.5,1.41,1.41,0,0,0-.25-.41,1.36,1.36,0,0,0-.39-.27,1.28,1.28,0,0,0-.48-.09h-.15a1.33,1.33,0,0,0-.49.09,1.22,1.22,0,0,0-.41.25,1.46,1.46,0,0,0-.27.41A1.42,1.42,0,0,0,713.11,348.74Z"/><line class="cls-6" x1="392.23" y1="268.08" x2="392.23" y2="310.35"/><rect class="cls-7" x="391.41" y="267.95" width="1.63" height="0.25"/><rect class="cls-7" x="391.41" y="310.22" width="1.63" height="0.25"/><path class="cls-7" d="M387.6,292h-4.68v.09L385,293v.67h0l-2.35-1.05v-1.31h5V289.7h.63v3.84h-.63Z"/><path class="cls-7" d="M385.59,288.59h-3v-3.51h.62v2.85h2v-.09a2.11,2.11,0,0,1-.31-.21,1.87,1.87,0,0,1-.26-.3,2.32,2.32,0,0,1-.18-.39,1.75,1.75,0,0,1-.06-.48,2,2,0,0,1,.12-.71,1.75,1.75,0,0,1,.36-.55,1.66,1.66,0,0,1,.56-.37,1.9,1.9,0,0,1,.73-.13h.14a2.13,2.13,0,0,1,.76.13,1.81,1.81,0,0,1,.63.37,1.84,1.84,0,0,1,.44.62,2.08,2.08,0,0,1,.16.85,2.31,2.31,0,0,1-.15.86,1.72,1.72,0,0,1-1,1,2,2,0,0,1-.75.13h-.23V288h.18a1.25,1.25,0,0,0,1-.37,1.41,1.41,0,0,0,.33-1,1.29,1.29,0,0,0-.11-.57,1.23,1.23,0,0,0-.31-.4,1.46,1.46,0,0,0-.46-.25,1.91,1.91,0,0,0-.54-.08h-.05a1.18,1.18,0,0,0-.46.09,1.14,1.14,0,0,0-.38.23,1.16,1.16,0,0,0-.25.36,1.14,1.14,0,0,0-.09.46.81.81,0,0,0,.05.31.9.9,0,0,0,.12.24.69.69,0,0,0,.17.17.46.46,0,0,0,.19.09Z"/><path class="cls-6" d="M650.06,361.5A131.9,131.9,0,0,0,642.38,317"/><line class="cls-9" x1="895.3" y1="39.98" x2="895.3" y2="376.73"/><line class="cls-9" x1="308.45" y1="222.6" x2="308.45" y2="540.14"/><line class="cls-9" x1="817.38" y1="290.06" x2="574.99" y2="290.06"/><line class="cls-9" x1="303.59" y1="310.47" x2="313.31" y2="310.47"/><polyline class="cls-6" points="319 324.64 379.23 384.88 427.49 384.88"/><path class="cls-7" d="M909.81,382.11a1.7,1.7,0,0,1-.6-.76,3.07,3.07,0,0,1-.21-1.2v-1.24a2.48,2.48,0,0,1,.52-1.69,1.82,1.82,0,0,1,1.45-.6,2.16,2.16,0,0,1,.62.09l.18-.57.56.17-.21.65a1.85,1.85,0,0,1,.6.77,3,3,0,0,1,.22,1.18v1.24a2.48,2.48,0,0,1-.53,1.71,1.81,1.81,0,0,1-1.44.58,1.94,1.94,0,0,1-.62-.08l-.21.66-.57-.18Zm-.14-2a2.08,2.08,0,0,0,.36,1.32l1.36-4.12a1.23,1.23,0,0,0-.42-.07,1.12,1.12,0,0,0-1,.47,2.21,2.21,0,0,0-.32,1.24Zm1.3,1.71a1.12,1.12,0,0,0,1-.45,2.15,2.15,0,0,0,.32-1.26V379a2.06,2.06,0,0,0-.36-1.29l-1.35,4.1A1.25,1.25,0,0,0,911,381.82Z"/><path class="cls-7" d="M915.31,379.55v-.93l1.83-1.17v-.1H914v-.62h3.74v1l-1.82,1.17v.1h.32a1.77,1.77,0,0,1,.61.1,1.57,1.57,0,0,1,.53.31,1.39,1.39,0,0,1,.36.49,1.44,1.44,0,0,1,.14.67v.15a1.52,1.52,0,0,1-.14.67,1.65,1.65,0,0,1-.4.54,2,2,0,0,1-.6.36,2.09,2.09,0,0,1-.76.13,2.52,2.52,0,0,1-.85-.14,2,2,0,0,1-.64-.4,1.71,1.71,0,0,1-.4-.59,2,2,0,0,1-.14-.72v-.44h.67v.39a1.33,1.33,0,0,0,.1.54,1.26,1.26,0,0,0,.28.4,1.22,1.22,0,0,0,.43.25,1.53,1.53,0,0,0,.54.09,1.37,1.37,0,0,0,.49-.09,1.28,1.28,0,0,0,.39-.24,1.22,1.22,0,0,0,.27-.37,1.13,1.13,0,0,0,.09-.45v-.05a1,1,0,0,0-.32-.79,1.15,1.15,0,0,0-.8-.28Z"/><path class="cls-7" d="M920.2,381.88a.53.53,0,0,1,.16-.39.54.54,0,0,1,.4-.17.52.52,0,0,1,.39.17.54.54,0,0,1,.17.39.54.54,0,0,1-.17.4.51.51,0,0,1-.39.16.55.55,0,0,1-.56-.56Z"/><path class="cls-7" d="M923.83,379.69v-3h3.5v.62h-2.84v2h.09a2,2,0,0,1,.21-.3,1.48,1.48,0,0,1,.3-.26,1.27,1.27,0,0,1,.39-.18,1.43,1.43,0,0,1,.48-.07,1.87,1.87,0,0,1,.71.13,1.46,1.46,0,0,1,.55.36,1.57,1.57,0,0,1,.37.56,2.05,2.05,0,0,1,.13.72v.15a2.08,2.08,0,0,1-.13.75,1.81,1.81,0,0,1-.38.64,1.69,1.69,0,0,1-.61.43,2.08,2.08,0,0,1-.85.16,2.54,2.54,0,0,1-.86-.14,2,2,0,0,1-.64-.4,1.54,1.54,0,0,1-.38-.61,2,2,0,0,1-.14-.75v-.23h.68v.18a1.28,1.28,0,0,0,.37,1,1.41,1.41,0,0,0,1,.33,1.25,1.25,0,0,0,.56-.12,1.17,1.17,0,0,0,.41-.31,1.36,1.36,0,0,0,.25-.46,1.91,1.91,0,0,0,.08-.54v0a1.23,1.23,0,0,0-.09-.47,1,1,0,0,0-.23-.37,1,1,0,0,0-.36-.26,1.14,1.14,0,0,0-.46-.09,1.06,1.06,0,0,0-.31,0,.9.9,0,0,0-.24.12.58.58,0,0,0-.17.18.38.38,0,0,0-.09.18Z"/><path class="cls-7" d="M930,378.81a.58.58,0,0,1,.16-.4.55.55,0,0,1,.4-.16.55.55,0,0,1,.56.56.55.55,0,0,1-.16.4.58.58,0,0,1-.4.16.55.55,0,0,1-.56-.56Zm0,3.07a.57.57,0,0,1,.16-.39.56.56,0,0,1,.4-.17.54.54,0,0,1,.4.17.53.53,0,0,1,.16.39.55.55,0,0,1-.56.56.55.55,0,0,1-.4-.16A.58.58,0,0,1,930,381.88Z"/><path class="cls-7" d="M934.29,382.11a1.7,1.7,0,0,1-.6-.76,3.07,3.07,0,0,1-.21-1.2v-1.24a2.48,2.48,0,0,1,.52-1.69,1.82,1.82,0,0,1,1.45-.6,2.16,2.16,0,0,1,.62.09l.18-.57.56.17-.21.65a1.85,1.85,0,0,1,.6.77,3,3,0,0,1,.21,1.18v1.24a2.53,2.53,0,0,1-.51,1.71,1.85,1.85,0,0,1-1.45.58,1.94,1.94,0,0,1-.62-.08l-.22.66-.56-.18Zm-.14-2a2.08,2.08,0,0,0,.36,1.32l1.36-4.12a1.23,1.23,0,0,0-.42-.07,1.1,1.1,0,0,0-1,.47,2.14,2.14,0,0,0-.33,1.24Zm1.3,1.71a1.12,1.12,0,0,0,1-.45,2.08,2.08,0,0,0,.32-1.26V379a2,2,0,0,0-.37-1.29l-1.34,4.1A1.25,1.25,0,0,0,935.45,381.82Z"/><path class="cls-7" d="M938.52,379.69v-3H942v.62h-2.85v2h.1a1.17,1.17,0,0,1,.21-.3,1.08,1.08,0,0,1,.3-.26,1.17,1.17,0,0,1,.39-.18,1.43,1.43,0,0,1,.48-.07,1.78,1.78,0,0,1,.7.13,1.42,1.42,0,0,1,.56.36,1.54,1.54,0,0,1,.36.56,1.85,1.85,0,0,1,.14.72v.15a2.32,2.32,0,0,1-.13.75,2,2,0,0,1-.38.64,1.69,1.69,0,0,1-.61.43,2.08,2.08,0,0,1-.85.16,2.6,2.6,0,0,1-.87-.14,1.84,1.84,0,0,1-.63-.4,1.54,1.54,0,0,1-.38-.61,2,2,0,0,1-.14-.75v-.23h.68v.18a1.28,1.28,0,0,0,.37,1,1.39,1.39,0,0,0,1,.33,1.25,1.25,0,0,0,.56-.12,1.17,1.17,0,0,0,.41-.31,1.19,1.19,0,0,0,.24-.46,1.61,1.61,0,0,0,.08-.54v0a1.22,1.22,0,0,0-.08-.47,1,1,0,0,0-.23-.37,1,1,0,0,0-.36-.26,1.18,1.18,0,0,0-.46-.09,1,1,0,0,0-.31,0,.9.9,0,0,0-.24.12.77.77,0,0,0-.18.18.76.76,0,0,0-.09.18Z"/><path class="cls-7" d="M973.8,745h-.09a1.15,1.15,0,0,1-.25.32,1.18,1.18,0,0,1-.32.23,1.4,1.4,0,0,1-.36.13,1.61,1.61,0,0,1-.37,0,2,2,0,0,1-.74-.13,1.77,1.77,0,0,1-.61-.39,1.9,1.9,0,0,1-.41-.64,2.56,2.56,0,0,1-.14-.87v-.12a2.37,2.37,0,0,1,.15-.87,1.86,1.86,0,0,1,.41-.63,1.62,1.62,0,0,1,.6-.4,2,2,0,0,1,.72-.14,1.68,1.68,0,0,1,.77.18,1.24,1.24,0,0,1,.55.56h.09V740h.63v5.6h-.63Zm-1.33.13a1.27,1.27,0,0,0,.52-.1,1.25,1.25,0,0,0,.42-.3,1.34,1.34,0,0,0,.29-.46,1.59,1.59,0,0,0,.1-.59v-.1a1.63,1.63,0,0,0-.1-.59,1.44,1.44,0,0,0-.29-.46,1.25,1.25,0,0,0-.42-.3,1.28,1.28,0,0,0-1,0,1.25,1.25,0,0,0-.42.3,1.15,1.15,0,0,0-.28.45,1.59,1.59,0,0,0-.1.59v.12a1.57,1.57,0,0,0,.1.6,1.15,1.15,0,0,0,.28.45,1.1,1.1,0,0,0,.42.29A1.24,1.24,0,0,0,972.47,745.16Z"/><path class="cls-7" d="M975.72,745.07h1.39v-2.82h-1.24v-.57h1.87v3.39H979v.57h-3.31Zm1.14-4.58a.51.51,0,0,1,.16-.39.54.54,0,0,1,.4-.17.54.54,0,0,1,.39.17.52.52,0,0,1,.17.39.54.54,0,0,1-.17.4.53.53,0,0,1-.39.16.55.55,0,0,1-.56-.56Z"/><path class="cls-7" d="M984.34,745.64h-.63v-2.85a.83.83,0,0,0-.12-.46.48.48,0,0,0-.41-.18.54.54,0,0,0-.43.2.92.92,0,0,0-.16.6v2.69H982v-2.88a.67.67,0,0,0-.14-.43.48.48,0,0,0-.39-.18.51.51,0,0,0-.44.21.92.92,0,0,0-.16.55v2.73h-.62v-4h.62v.43h.1a.85.85,0,0,1,.3-.42.93.93,0,0,1,.48-.13.72.72,0,0,1,.47.15.82.82,0,0,1,.26.4h.1a.9.9,0,0,1,.86-.55.85.85,0,0,1,.69.29,1.05,1.05,0,0,1,.25.74Z"/><path class="cls-7" d="M985.87,743.85a1.41,1.41,0,0,0,.37.95,1.27,1.27,0,0,0,1,.36,1.77,1.77,0,0,0,.49-.06,1,1,0,0,0,.36-.18,1.2,1.2,0,0,0,.24-.26,1.23,1.23,0,0,0,.14-.31l.6.16a1.84,1.84,0,0,1-.62.9,2,2,0,0,1-1.22.34,1.94,1.94,0,0,1-.78-.14,1.79,1.79,0,0,1-.62-.42,2,2,0,0,1-.4-.65,2.45,2.45,0,0,1-.14-.83v-.2a2,2,0,0,1,.15-.77,1.77,1.77,0,0,1,.41-.62,2,2,0,0,1,.62-.41,2,2,0,0,1,.77-.15,1.79,1.79,0,0,1,1.43.63,2,2,0,0,1,.34.57,1.81,1.81,0,0,1,.1.58v.51Zm1.33-1.7a1.33,1.33,0,0,0-.49.09,1.13,1.13,0,0,0-.4.23,1.21,1.21,0,0,0-.28.36,1.33,1.33,0,0,0-.14.44h2.56a1.16,1.16,0,0,0-.12-.46,1.39,1.39,0,0,0-.28-.35,1.44,1.44,0,0,0-.4-.23A1.33,1.33,0,0,0,987.2,742.15Z"/><path class="cls-7" d="M990.94,745.64h-.63v-4h.63v.67H991a1.31,1.31,0,0,1,1.28-.79,1.47,1.47,0,0,1,1.1.43,1.8,1.8,0,0,1,.41,1.28v2.37h-.63V743.4a1.34,1.34,0,0,0-.28-.93,1,1,0,0,0-.76-.32,1.1,1.1,0,0,0-.89.39,1.61,1.61,0,0,0-.32,1Z"/><path class="cls-7" d="M996,742.7a.48.48,0,0,0,.25.44,2.11,2.11,0,0,0,.89.2,2.08,2.08,0,0,1,1.06.33.94.94,0,0,1,.36.8v0a1.24,1.24,0,0,1-.11.52,1.34,1.34,0,0,1-.32.39,1.66,1.66,0,0,1-.5.24,2.13,2.13,0,0,1-.63.08,2.36,2.36,0,0,1-.8-.12,1.5,1.5,0,0,1-.55-.33,1.23,1.23,0,0,1-.33-.46,1.42,1.42,0,0,1-.13-.53l.59-.14a1.06,1.06,0,0,0,.35.73,1.19,1.19,0,0,0,.83.28,1.33,1.33,0,0,0,.71-.17.56.56,0,0,0,.27-.49.52.52,0,0,0-.26-.48,2.48,2.48,0,0,0-.86-.18,2,2,0,0,1-1.06-.32.93.93,0,0,1-.36-.79v0a1,1,0,0,1,.12-.49,1.1,1.1,0,0,1,.32-.36,1.28,1.28,0,0,1,.46-.21,1.91,1.91,0,0,1,.54-.08,2,2,0,0,1,.68.11,1.59,1.59,0,0,1,.5.28,1.31,1.31,0,0,1,.31.4,1.6,1.6,0,0,1,.14.44l-.59.15a.84.84,0,0,0-.31-.6,1,1,0,0,0-.7-.22,1.86,1.86,0,0,0-.33,0,.81.81,0,0,0-.27.11.47.47,0,0,0-.27.43Z"/><path class="cls-7" d="M1000.2,745.07h1.39v-2.82h-1.24v-.57h1.87v3.39h1.29v.57h-3.31Zm1.14-4.58a.51.51,0,0,1,.16-.39.54.54,0,0,1,.4-.17.54.54,0,0,1,.39.17.52.52,0,0,1,.17.39.54.54,0,0,1-.17.4.53.53,0,0,1-.39.16.55.55,0,0,1-.56-.56Z"/><path class="cls-7" d="M1008.75,743.71a2.14,2.14,0,0,1-.17.87,1.83,1.83,0,0,1-1.07,1,2.13,2.13,0,0,1-.76.13,2.17,2.17,0,0,1-.76-.13,1.85,1.85,0,0,1-1.06-1,2.14,2.14,0,0,1-.17-.87v-.1a2.21,2.21,0,0,1,.17-.87,1.7,1.7,0,0,1,.44-.64,1.74,1.74,0,0,1,.63-.4,2.11,2.11,0,0,1,1.51,0,1.74,1.74,0,0,1,.63.4,1.83,1.83,0,0,1,.44.64,2.21,2.21,0,0,1,.17.87Zm-2,1.45a1.37,1.37,0,0,0,.54-.1,1.1,1.1,0,0,0,.42-.29,1.29,1.29,0,0,0,.29-.46,1.64,1.64,0,0,0,.1-.6v-.1a1.63,1.63,0,0,0-.1-.59,1.29,1.29,0,0,0-.29-.46,1.19,1.19,0,0,0-.43-.3,1.35,1.35,0,0,0-1.49.3,1.27,1.27,0,0,0-.28.46,1.63,1.63,0,0,0-.11.59v.1a1.64,1.64,0,0,0,.11.6,1.27,1.27,0,0,0,.28.46,1.21,1.21,0,0,0,.43.29A1.32,1.32,0,0,0,1006.75,745.16Z"/><path class="cls-7" d="M1010.52,745.64h-.62v-4h.62v.67h.1a1.29,1.29,0,0,1,1.28-.79,1.45,1.45,0,0,1,1.09.43,1.76,1.76,0,0,1,.41,1.28v2.37h-.62V743.4a1.4,1.4,0,0,0-.28-.93,1,1,0,0,0-.76-.32,1.08,1.08,0,0,0-.89.39,1.56,1.56,0,0,0-.33,1Z"/><path class="cls-7" d="M1015.62,742.7a.49.49,0,0,0,.24.44,2.11,2.11,0,0,0,.89.2,2,2,0,0,1,1.06.33.92.92,0,0,1,.37.8v0a1.11,1.11,0,0,1-.12.52,1.2,1.2,0,0,1-.32.39,1.72,1.72,0,0,1-.49.24,2.2,2.2,0,0,1-.64.08,2.36,2.36,0,0,1-.8-.12,1.58,1.58,0,0,1-.55-.33,1.23,1.23,0,0,1-.33-.46,1.42,1.42,0,0,1-.13-.53l.59-.14a1.07,1.07,0,0,0,.36.73,1.16,1.16,0,0,0,.83.28,1.36,1.36,0,0,0,.71-.17.57.57,0,0,0,.26-.49.5.5,0,0,0-.26-.48,2.43,2.43,0,0,0-.86-.18,2,2,0,0,1-1-.32.92.92,0,0,1-.37-.79v0a1,1,0,0,1,.12-.49,1.22,1.22,0,0,1,.32-.36,1.28,1.28,0,0,1,.46-.21,1.91,1.91,0,0,1,.54-.08,2.08,2.08,0,0,1,.69.11,1.66,1.66,0,0,1,.49.28,1.17,1.17,0,0,1,.31.4,1.6,1.6,0,0,1,.14.44l-.59.15a.84.84,0,0,0-.31-.6,1,1,0,0,0-.7-.22,1.65,1.65,0,0,0-.32,0,.78.78,0,0,0-.28.11.47.47,0,0,0-.19.18A.41.41,0,0,0,1015.62,742.7Z"/><path class="cls-7" d="M1024.68,745.07h1.39v-2.82h-1.24v-.57h1.87v3.39H1028v.57h-3.31Zm1.14-4.58a.51.51,0,0,1,.16-.39.54.54,0,0,1,.4-.17.54.54,0,0,1,.39.17.52.52,0,0,1,.17.39.54.54,0,0,1-.17.4.53.53,0,0,1-.39.16.55.55,0,0,1-.56-.56Z"/><path class="cls-7" d="M1030.1,745.64h-.62v-4h.62v.67h.1a1.3,1.3,0,0,1,1.28-.79,1.47,1.47,0,0,1,1.1.43,1.8,1.8,0,0,1,.41,1.28v2.37h-.63V743.4a1.34,1.34,0,0,0-.28-.93,1,1,0,0,0-.76-.32,1.1,1.1,0,0,0-.89.39,1.56,1.56,0,0,0-.33,1Z"/><path class="cls-7" d="M1043.09,745.64h-.62v-2.85a.83.83,0,0,0-.13-.46.47.47,0,0,0-.41-.18.54.54,0,0,0-.43.2.92.92,0,0,0-.16.6v2.69h-.63v-2.88a.62.62,0,0,0-.14-.43.46.46,0,0,0-.38-.18.53.53,0,0,0-.45.21.92.92,0,0,0-.15.55v2.73H1039v-4h.63v.43h.09a.8.8,0,0,1,.31-.42.89.89,0,0,1,.47-.13.72.72,0,0,1,.47.15.76.76,0,0,1,.26.4h.1a1,1,0,0,1,1.56-.26,1.1,1.1,0,0,1,.24.74Z"/><path class="cls-7" d="M1048,745.64h-.63v-2.85a.76.76,0,0,0-.13-.46.45.45,0,0,0-.4-.18.54.54,0,0,0-.43.2.91.91,0,0,0-.17.6v2.69h-.62v-2.88a.67.67,0,0,0-.14-.43.48.48,0,0,0-.39-.18.51.51,0,0,0-.44.21.86.86,0,0,0-.16.55v2.73h-.62v-4h.62v.43h.1a.85.85,0,0,1,.3-.42.89.89,0,0,1,.47-.13.74.74,0,0,1,.48.15.9.9,0,0,1,.26.4h.1a.89.89,0,0,1,.86-.55.85.85,0,0,1,.69.29,1.1,1.1,0,0,1,.25.74Z"/><polyline class="cls-6" points="805.99 297.14 893.72 384.88 942.79 384.88"/></g></svg>